<svg width="240" height="240" viewBox="0 0 240 240" fill="none" xmlns="http://www.w3.org/2000/svg">
  <!-- 的 -->
  <circle cx="120" cy="120" r="100" fill="#B22222" />
  <circle cx="120" cy="120" r="80" fill="#FFFFFF" />
  <circle cx="120" cy="120" r="60" fill="#B22222" />
  <circle cx="120" cy="120" r="40" fill="#FFFFFF" />
  <circle cx="120" cy="120" r="20" fill="#B22222" />
  
  <!-- 手裏剣（的の端に刺さっている） -->
  <path d="M160 90L175 120H145L160 90Z" fill="#4A4A4A" stroke="#000000" stroke-width="2" transform="rotate(15 160 90)"/>
  <path d="M160 170L145 140H175L160 170Z" fill="#4A4A4A" stroke="#000000" stroke-width="2" transform="rotate(15 160 90)"/>
  <path d="M120 90L150 75V105L120 90Z" fill="#4A4A4A" stroke="#000000" stroke-width="2" transform="rotate(15 160 90)"/>
  <path d="M200 90L170 105V75L200 90Z" fill="#4A4A4A" stroke="#000000" stroke-width="2" transform="rotate(15 160 90)"/>
  <circle cx="160" cy="90" r="10" fill="#4A4A4A" stroke="#000000" stroke-width="2"/>
</svg> 